<svg width="23" height="20" viewBox="0 0 23 20" fill="none" xmlns="http://www.w3.org/2000/svg">
<path d="M19.8752 15.4755C20.2832 15.4755 20.6745 15.3127 20.963 15.0228C21.2515 14.733 21.4136 14.3399 21.4136 13.93V10.8391C21.4136 10.4293 21.2515 10.0362 20.963 9.74633C20.6745 9.4565 20.2832 9.29368 19.8752 9.29368H17.5675L16.3829 5.70822C16.2758 5.38834 16.0675 5.11245 15.7897 4.92269C15.5119 4.73293 15.1799 4.63972 14.8444 4.65732H8.67517C8.33969 4.63972 8.00769 4.73293 7.72989 4.92269C7.45209 5.11245 7.24376 5.38834 7.13671 5.70822L6.02902 9.29368H2.9521C2.54407 9.29368 2.15276 9.4565 1.86424 9.74633C1.57572 10.0362 1.41364 10.4293 1.41364 10.8391V13.93C1.41364 14.3399 1.57572 14.733 1.86424 15.0228C2.15276 15.3127 2.54407 15.4755 2.9521 15.4755M19.8752 15.4755C19.8752 17.1826 18.4976 18.5664 16.7983 18.5664C15.0989 18.5664 13.7213 17.1826 13.7213 15.4755M19.8752 15.4755C19.8752 13.7684 18.4976 12.3846 16.7983 12.3846C15.0989 12.3846 13.7213 13.7684 13.7213 15.4755M2.9521 15.4755C2.9521 17.1826 4.32968 18.5664 6.02902 18.5664C7.72836 18.5664 9.10594 17.1826 9.10594 15.4755M2.9521 15.4755C2.9521 13.7684 4.32968 12.3846 6.02902 12.3846C7.72836 12.3846 9.10594 13.7684 9.10594 15.4755M9.10594 15.4755H13.7213M11.4136 4.65732V1.56641" stroke="white" stroke-width="2" stroke-linecap="round" stroke-linejoin="round"/>
</svg>
