<svg width="21" height="23" viewBox="0 0 21 23" fill="none"
    xmlns="http://www.w3.org/2000/svg">
    <path d="M4.49725 18.7587V21.0664M15.9518 18.7587V21.0664M1.22452 11.0664H19.2245M2.86088 1.06641H17.5882C18.4919 1.06641 19.2245 1.7552 19.2245 2.60487V17.2203C19.2245 18.0699 18.4919 18.7587 17.5882 18.7587H2.86088C1.95714 18.7587 1.22452 18.0699 1.22452 17.2203V2.60487C1.22452 1.7552 1.95714 1.06641 2.86088 1.06641ZM6.13361 14.9126C6.13361 15.3374 5.7673 15.6818 5.31543 15.6818C4.86356 15.6818 4.49725 15.3374 4.49725 14.9126C4.49725 14.4877 4.86356 14.1433 5.31543 14.1433C5.7673 14.1433 6.13361 14.4877 6.13361 14.9126ZM15.9518 14.9126C15.9518 15.3374 15.5855 15.6818 15.1336 15.6818C14.6817 15.6818 14.3154 15.3374 14.3154 14.9126C14.3154 14.4877 14.6817 14.1433 15.1336 14.1433C15.5855 14.1433 15.9518 14.4877 15.9518 14.9126Z" stroke="white" stroke-width="2" stroke-linecap="round" stroke-linejoin="round"/>
</svg>
