<svg width="23" height="18" viewBox="0 0 23 18" fill="none" xmlns="http://www.w3.org/2000/svg">
<path d="M9.38777 4.56641H4.77239C3.95634 4.56641 3.17371 4.88248 2.59668 5.44509C2.01964 6.00769 1.69547 6.77076 1.69547 7.56641V13.5664H4.00316M4.00316 13.5664C4.00316 15.2233 5.38074 16.5664 7.08008 16.5664C8.77942 16.5664 10.157 15.2233 10.157 13.5664M4.00316 13.5664C4.00316 11.9096 5.38074 10.5664 7.08008 10.5664C8.77942 10.5664 10.157 11.9096 10.157 13.5664M20.157 13.5664H21.6955V3.06641C21.6955 2.66858 21.5334 2.28705 21.2449 2.00575C20.9563 1.72444 20.565 1.56641 20.157 1.56641H10.9262C10.5182 1.56641 10.1269 1.72444 9.83838 2.00575C9.54986 2.28705 9.38777 2.66858 9.38777 3.06641V11.5864M20.157 13.5664C20.157 15.2233 18.7794 16.5664 17.0801 16.5664C15.3807 16.5664 14.0032 15.2233 14.0032 13.5664M20.157 13.5664C20.157 11.9096 18.7794 10.5664 17.0801 10.5664C15.3807 10.5664 14.0032 11.9096 14.0032 13.5664M10.157 13.5664H14.0032" stroke="white" stroke-width="2" stroke-linecap="round" stroke-linejoin="round"/>
</svg>
